<svg width="12" height="8" viewBox="0 0 12 8" fill="none" xmlns="http://www.w3.org/2000/svg">
<path d="M1.02642 6.79132C1.21215 6.9792 1.46468 7.08595 1.72885 7.08825C1.99303 7.09056 2.24738 6.98823 2.43637 6.80362L6.05712 3.29509L9.56609 6.86584C9.75182 7.05372 10.0044 7.16047 10.2685 7.16278C10.5327 7.16508 10.7871 7.06275 10.976 6.87815C11.0706 6.786 11.1459 6.67606 11.1978 6.55465C11.2496 6.43323 11.2769 6.30276 11.278 6.17075C11.2792 6.03875 11.2542 5.90782 11.2045 5.78552C11.1548 5.66322 11.0813 5.55198 10.9884 5.4582L6.78559 1.18136C6.69345 1.08683 6.5835 1.01147 6.46209 0.95964C6.34068 0.90781 6.21021 0.880532 6.0782 0.87938C5.94619 0.878228 5.81527 0.903225 5.69297 0.952928C5.57067 1.00263 5.45942 1.07606 5.36565 1.16897L1.03881 5.37137C0.944275 5.46351 0.868919 5.57346 0.817088 5.69487C0.765258 5.81628 0.737979 5.94676 0.736827 6.07876C0.735675 6.21077 0.760673 6.3417 0.810376 6.464C0.86008 6.58629 0.933506 6.69754 1.02642 6.79132Z" fill="white"/>
</svg>
